<?xml version="1.0" encoding="UTF-8"?>
<svg width="20px" height="16px" viewBox="0 0 20 16" version="1.1" xmlns="http://www.w3.org/2000/svg" xmlns:xlink="http://www.w3.org/1999/xlink">
    <!-- Generator: Sketch 58 (84663) - https://sketch.com -->
    <title>Icons/24/Update</title>
    <desc>Created with Sketch.</desc>
    <g id="Log" stroke="none" stroke-width="1" fill="none" fill-rule="evenodd" stroke-linecap="round">
        <g id="Desktop/Menu" transform="translate(-619.000000, -135.000000)" stroke="#67B279">
            <g id="Group-13" transform="translate(408.000000, 112.000000)">
                <g id="Group-3" transform="translate(209.000000, 19.000000)">
                    <g id="Icons/24/Update">
                        <g id="Group" transform="translate(3.000000, 5.000000)">
                            <path d="M16,7 C16,3.13400675 12.8659932,0 9,0 C6.85243998,0 4.93075669,0.967093283 3.64669609,2.48953391" id="Oval" stroke-width="1.5"></path>
                            <path d="M14.3533039,14 C14.3533039,10.1340068 11.2192972,7 7.35330391,7 C5.20574389,7 3.28406061,7.96709328 2,9.48953391" id="Oval" stroke-width="1.5" transform="translate(8.176652, 10.500000) scale(-1, -1) translate(-8.176652, -10.500000) "></path>
                            <polyline id="Line" stroke-width="1.5" transform="translate(2.000000, 7.000000) scale(1, -1) translate(-2.000000, -7.000000) " points="0 6.15148662 2.01722893 8 4 6"></polyline>
                            <polyline id="Line-Copy" stroke-width="1.5" transform="translate(16.000000, 7.000000) scale(1, -1) rotate(-180.000000) translate(-16.000000, -7.000000) " points="14 6.15148662 16.0172289 8 18 6"></polyline>
                        </g>
                    </g>
                </g>
            </g>
        </g>
    </g>
</svg>